<svg width="106" height="106" viewBox="0 0 106 106" fill="none" xmlns="http://www.w3.org/2000/svg">
    <circle cx="53" cy="53" r="52.5" stroke="black"/>
    <path d="M64.6667 38H41.3333C39.4924 38 38 39.4924 38 41.3333V64.6667C38 66.5076 39.4924 68 41.3333 68H64.6667C66.5076 68 68 66.5076 68 64.6667V41.3333C68 39.4924 66.5076 38 64.6667 38Z" stroke="black" strokeLinecap="round" strokeLinejoin="round"/>
    <path d="M47.167 49.6667C48.5477 49.6667 49.667 48.5474 49.667 47.1667C49.667 45.786 48.5477 44.6667 47.167 44.6667C45.7863 44.6667 44.667 45.786 44.667 47.1667C44.667 48.5474 45.7863 49.6667 47.167 49.6667Z" stroke="black" strokeLinecap="round" strokeLinejoin="round"/>
    <path d="M67.9997 58L59.6663 49.6667L41.333 68" stroke="black" strokeLinecap="round" strokeLinejoin="round"/>
</svg>
