<svg xmlns="http://www.w3.org/2000/svg" width="66" height="21" viewBox="0 0 66 21" fill="none">
  <g clip-path="url(#clip0_723_1984)">
    <g opacity="1">
      <path d="M51.2745 8.27988L52.0095 20.5149H43.4278L43.2752 12.8582L39.8606 14.7963L35.7733 20.5149H28.5654L42.9473 0.398438H50.1552L45.3895 7.06087H45.4404L56.6621 0.398438H65.1194L51.2802 8.27988H51.2745Z" fill="white"/>
    </g>
    <g opacity="1">
      <path d="M26.8247 0.398438H38.8604C45.2147 0.398438 44.7398 4.17906 42.5351 7.2631C39.0696 12.1111 33.6142 14.4255 28.2549 14.4255H23.998L19.645 20.5149H12.4371L26.8247 0.398438ZM27.5596 9.44833H30.3353C32.1613 9.44833 34.1174 9.54945 35.5929 7.48219C36.8931 5.66771 35.3045 5.54413 33.5294 5.54413H30.3523L27.5596 9.44833Z" fill="white"/>
    </g>
    <g opacity="1">
      <path d="M10.5659 16.3359C11.6683 16.3359 13.5565 16.1112 14.6023 14.645C15.3994 13.5271 14.6984 13.353 12.1545 12.6058C11.9057 12.5328 11.6513 12.4317 11.3291 12.3586C8.23112 11.4374 4.39822 10.4711 7.16831 6.5894C10.7468 1.58977 16.5188 0 21.3975 0C26.2763 0 29.9961 1.69089 26.4855 6.63996H19.4811C20.77 5.05019 19.5263 4.4772 18.1752 4.4772C17.2481 4.4772 15.5804 4.67381 14.7832 5.79733C14.054 6.81411 15.7952 7.21295 17.7173 7.71292L19.6507 8.25782C22.3982 9.00496 25.0156 10.4431 22.4773 13.999C18.7631 19.1952 11.9679 20.8636 6.68778 20.8636C4.05902 20.8636 -3.05843 20.0435 1.49244 13.6788H8.89821C7.34921 15.8415 8.5477 16.3415 10.5716 16.3415L10.5659 16.3359Z" fill="white"/>
    </g>
  </g>
  <defs>
    <clipPath id="clip0_723_1984">
      <rect width="65.1198" height="20.8636" fill="white"/>
    </clipPath>
  </defs>
</svg>