<svg width="286" height="92" viewBox="0 0 286 92" fill="none" xmlns="http://www.w3.org/2000/svg">
<g clip-path="url(#clip0_1467_1737)">
<g opacity="0.8">
<path d="M225.193 36.5127L228.421 90.4642H190.731L190.06 56.7012L175.064 65.2472L157.113 90.4642H125.457L188.62 1.75879H220.277L199.346 31.1374H199.57L248.854 1.75879H285.998L225.218 36.5127H225.193Z" fill="#34FB14"/>
</g>
<g opacity="0.8">
<path d="M117.812 1.75879H170.672C198.579 1.75879 196.493 18.4298 186.81 32.0291C171.59 53.4066 147.631 63.6123 124.093 63.6123H105.397L86.2794 90.4642H54.623L117.812 1.75879ZM121.039 41.6651H133.23C141.25 41.6651 149.841 42.111 156.321 32.9952C162.031 24.9941 155.055 24.4492 147.258 24.4492H133.305L121.039 41.6651Z" fill="#34FB14"/>
</g>
<g opacity="0.8">
<path d="M46.4048 72.0345C51.2463 72.0345 59.5391 71.0436 64.1323 64.5784C67.6332 59.6489 64.5544 58.881 53.3816 55.5864C52.2891 55.2644 51.1718 54.8185 49.7566 54.4965C36.1506 50.434 19.3168 46.1734 31.4828 29.0565C47.1993 7.01023 72.5492 0 93.9762 0C115.403 0 131.74 7.45611 116.322 29.2795H85.5594C91.2203 22.2693 85.758 19.7426 79.824 19.7426C75.7521 19.7426 68.4277 20.6096 64.9268 25.5638C61.724 30.0474 69.3712 31.8061 77.8129 34.0108L86.3042 36.4136C98.3709 39.7081 109.867 46.0495 98.7185 61.7297C82.4061 84.643 52.5622 92 29.3724 92C17.8271 92 -13.432 88.3834 6.55494 60.3177H39.0803C32.2773 69.8546 37.541 72.0592 46.4296 72.0592L46.4048 72.0345Z" fill="#34FB14"/>
</g>
</g>
<defs>
<clipPath id="clip0_1467_1737">
<rect width="286" height="92" fill="white"/>
</clipPath>
</defs>
</svg>
