<svg width="106" height="106" viewBox="0 0 106 106" fill="none" xmlns="http://www.w3.org/2000/svg">
    <circle cx="53" cy="53" r="52.5" stroke="black"/>
    <path d="M67.9309 45.095C67.7626 44.4227 67.4198 43.8067 66.9373 43.3092C66.4547 42.8117 65.8494 42.4504 65.1825 42.2617C62.7458 41.6667 52.9992 41.6667 52.9992 41.6667C52.9992 41.6667 43.2525 41.6667 40.8158 42.3184C40.1489 42.507 39.5436 42.8684 39.0611 43.3658C38.5785 43.8633 38.2358 44.4794 38.0675 45.1517C37.6216 47.6246 37.4034 50.1331 37.4158 52.6459C37.4 55.1775 37.6181 57.7052 38.0675 60.1967C38.253 60.8481 38.6034 61.4407 39.0849 61.9172C39.5663 62.3937 40.1625 62.7379 40.8158 62.9167C43.2525 63.5684 52.9992 63.5684 52.9992 63.5684C52.9992 63.5684 62.7458 63.5684 65.1825 62.9167C65.8494 62.728 66.4547 62.3667 66.9373 61.8692C67.4198 61.3717 67.7626 60.7557 67.9309 60.0834C68.3734 57.6291 68.5915 55.1397 68.5825 52.6459C68.5984 50.1142 68.3803 47.5865 67.9309 45.095Z" stroke="black" strokeLinecap="round" strokeLinejoin="round"/>
    <path d="M49.8125 57.2783L57.9583 52.6458L49.8125 48.0133V57.2783Z" stroke="black" strokeLinecap="round" strokeLinejoin="round"/>
</svg>
